<?xml version="1.0" encoding="iso-8859-1"?>
<!-- Uploaded to: SVG Repo, www.svgrepo.com, Generator: SVG Repo Mixer Tools -->
<svg version="1.1" id="Layer_1" xmlns="http://www.w3.org/2000/svg" xmlns:xlink="http://www.w3.org/1999/xlink" 
	 viewBox="0 0 512 512" xml:space="preserve">
<g>
	<path style="fill:#FF5023;" d="M313.723,459.447v-64.503c0-15.243,10.553-27.6,23.569-27.6h58.682h16.432
		c13.017,0,23.569,12.357,23.569,27.6v64.503H313.723z"/>
	<path style="fill:#FF5023;" d="M191.472,459.447v-64.503c0-15.243,10.553-27.6,23.569-27.6h54.79h20.324
		c13.017,0,23.569,12.357,23.569,27.6v64.503H191.472z"/>
	<path style="fill:#FF5023;" d="M69.219,459.447v-64.503c0-15.243,10.553-27.6,23.569-27.6h57.643h17.471
		c13.017,0,23.569,12.357,23.569,27.6v64.503H69.219z"/>
</g>
<g>
	<path style="fill:#891C00;" d="M167.49,367.345h-17.472h-7.022c13.018,0,23.569,10.553,23.569,23.569v55.083h24.493v-55.083
		C191.059,377.896,180.506,367.345,167.49,367.345z"/>
	<path style="fill:#891C00;" d="M290.154,367.345h-17.471h-7.022c13.018,0,23.569,10.553,23.569,23.569v55.083h24.493v-55.083
		C313.723,377.896,303.172,367.345,290.154,367.345z"/>
	<path style="fill:#891C00;" d="M412.407,367.345h-17.471h-7.022c13.018,0,23.569,10.553,23.569,23.569v55.083h24.493v-55.083
		C435.976,377.896,425.423,367.345,412.407,367.345z"/>
	<rect x="69.221" y="413.394" style="opacity:0.22;fill:#891C00;enable-background:new    ;" width="363.905" height="56.745"/>
</g>
<g>
	<path style="fill:#FF5023;" d="M252.598,504.411H130.345v-44.964c0-13.017,10.553-23.569,23.569-23.569h75.113
		c13.017,0,23.569,10.553,23.569,23.569v44.964H252.598z"/>
	<path style="fill:#FF5023;" d="M374.85,504.411H252.597v-44.964c0-13.017,10.553-23.569,23.569-23.569h75.113
		c13.017,0,23.569,10.553,23.569,23.569v44.964H374.85z"/>
	<path style="fill:#FF5023;" d="M497.102,504.411H374.85v-44.964c0-13.017,10.553-23.569,23.569-23.569h75.113
		c13.017,0,23.569,10.553,23.569,23.569v44.964H497.102z"/>
</g>
<polygon style="fill:#77757E;" points="69.219,7.589 503.903,7.589 503.903,307.776 8.093,307.776 8.093,7.589 "/>
<circle style="fill:#D7D5D9;" cx="254.948" cy="157.688" r="113.004"/>
<path d="M256.216,104.075c16.369,0,31.607,10.725,31.607,28.645c0,30.478-44.73,40.356-44.73,55.031v3.387h39.228
	c3.103,0,5.785,3.669,5.785,7.903c0,4.234-2.68,8.184-5.785,8.184h-50.234c-3.245,0-8.042-2.257-8.042-5.786V187.75
	c0-22.577,45.434-34.57,45.434-54.466c0-5.785-3.81-12.557-13.123-12.557c-6.914,0-12.558,3.668-12.558,12.416
	c0,3.387-3.527,6.772-9.594,6.772c-4.797,0-8.326-2.257-8.326-9.878C225.879,113.952,240.554,104.075,256.216,104.075z"/>
<path style="fill:#FF5023;" d="M130.345,504.411H8.093v-44.964c0-13.017,10.553-23.569,23.569-23.569h75.113
	c13.017,0,23.569,10.553,23.569,23.569L130.345,504.411L130.345,504.411z"/>
<g>
	<path style="fill:#891C00;" d="M106.776,435.878H82.191c13.017,0,23.569,10.553,23.569,23.569v44.964h24.585v-44.965
		C130.345,446.431,119.793,435.878,106.776,435.878z"/>
	<path style="fill:#891C00;" d="M229.074,435.878h-24.585c13.017,0,23.569,10.553,23.569,23.569v44.964h24.585v-44.965
		C252.644,446.431,242.092,435.878,229.074,435.878z"/>
	<path style="fill:#891C00;" d="M351.327,435.878h-24.585c13.017,0,23.569,10.553,23.569,23.569v44.964h24.585v-44.965
		C374.896,446.431,364.344,435.878,351.327,435.878z"/>
	<path style="fill:#891C00;" d="M473.533,435.878h-24.585c13.017,0,23.569,10.553,23.569,23.569v44.964h24.585v-44.965
		C497.102,446.431,486.55,435.878,473.533,435.878z"/>
</g>
<path d="M255.421,250.603c22.391,0,44.022-8.077,60.907-22.745c16.714-14.518,27.717-34.51,30.982-56.297
	c0.621-4.145-2.235-8.008-6.381-8.629c-4.147-0.618-8.008,2.235-8.629,6.381c-5.65,37.69-38.701,66.112-76.88,66.112
	c-42.866,0-77.741-34.875-77.741-77.742s34.875-77.742,77.741-77.742c19.804,0,38.669,7.449,53.116,20.975
	c3.061,2.865,7.864,2.707,10.727-0.353c2.865-3.06,2.707-7.863-0.353-10.727c-17.27-16.169-39.82-25.074-63.49-25.074
	c-51.236,0-92.919,41.683-92.919,92.92S204.185,250.603,255.421,250.603z"/>
<path d="M511.495,157.683c0-0.02-0.003-0.039-0.003-0.059V7.589c0-4.192-3.397-7.589-7.589-7.589H69.219
	c-4.192,0-7.589,3.397-7.589,7.589s3.397,7.589,7.589,7.589h179.194v22.697c-60.414,3.497-108.977,51.881-112.761,112.219H15.683
	V7.589C15.683,3.397,12.286,0,8.094,0S0.505,3.397,0.505,7.589v300.187c0,4.192,3.397,7.589,7.589,7.589h495.81
	c4.192,0,7.589-3.397,7.589-7.589V157.742C511.493,157.722,511.495,157.702,511.495,157.683z M255.421,52.843
	c30.608,0,59.612,13.331,79.574,36.575c2.731,3.178,7.523,3.545,10.701,0.813c3.179-2.73,3.544-7.522,0.813-10.701
	c-21.064-24.527-50.928-39.401-82.918-41.575V15.178h232.724v134.916H369.006c-0.195,0-0.387,0.015-0.578,0.029
	c-0.191-0.014-0.382-0.029-0.578-0.029c-4.192,0-7.589,3.397-7.589,7.589c0,57.808-47.03,104.839-104.84,104.839
	c-57.792,0-104.812-47.005-104.839-104.792c0-0.016,0.002-0.031,0.002-0.047s-0.002-0.031-0.002-0.047
	C150.609,99.848,197.629,52.843,255.421,52.843z M15.683,165.272h119.969c3.784,60.338,52.347,108.721,112.761,112.218v22.697
	H15.683V165.272z M263.59,300.187v-22.771c59.875-4.045,107.842-52.194,111.602-112.144h121.122v134.915H263.59z"/>
<path d="M314.408,140.786c1.421,2.379,3.939,3.696,6.52,3.696c1.326,0,2.667-0.347,3.887-1.076l115.791-69.214
	c3.598-2.15,4.771-6.81,2.621-10.407c-2.149-3.599-6.811-4.77-10.407-2.621l-115.791,69.214
	C313.431,132.529,312.258,137.189,314.408,140.786z"/>
<path d="M473.533,428.289h-29.968v-37.375c0-17.18-13.977-31.158-31.158-31.158h-16.432c-4.192,0-7.589,3.397-7.589,7.589
	s3.397,7.589,7.589,7.589h16.432c8.811,0,15.98,7.169,15.98,15.98v37.375h-29.968c-9.409,0-17.851,4.198-23.569,10.814
	c-5.718-6.616-14.16-10.814-23.569-10.814h-29.968v-37.375c0-8.811,7.169-15.98,15.98-15.98c4.192,0,7.589-3.397,7.589-7.589
	s-3.397-7.589-7.589-7.589c-9.409,0-17.851,4.198-23.569,10.814c-5.718-6.616-14.16-10.814-23.569-10.814H269.83
	c-4.192,0-7.589,3.397-7.589,7.589s3.397,7.589,7.589,7.589h20.324c8.811,0,15.98,7.169,15.98,15.98v37.375h-29.968
	c-9.409,0-17.851,4.198-23.569,10.814c-5.718-6.616-14.16-10.814-23.569-10.814h-29.967v-37.375c0-8.811,7.169-15.98,15.98-15.98
	c4.192,0,7.589-3.397,7.589-7.589s-3.397-7.589-7.589-7.589c-9.409,0-17.851,4.198-23.569,10.814
	c-5.718-6.616-14.16-10.814-23.569-10.814h-17.472c-4.192,0-7.589,3.397-7.589,7.589s3.397,7.589,7.589,7.589h17.472
	c8.811,0,15.98,7.169,15.98,15.98v37.375h-29.968c-9.409,0-17.851,4.198-23.569,10.814c-5.718-6.616-14.16-10.814-23.569-10.814
	H76.808v-37.375c0-8.811,7.169-15.98,15.981-15.98c4.192,0,7.589-3.397,7.589-7.589s-3.397-7.589-7.589-7.589
	c-17.18,0-31.159,13.977-31.159,31.158v37.375H31.663c-17.18,0-31.158,13.978-31.158,31.159v44.963c0,4.192,3.397,7.589,7.589,7.589
	h122.252h122.252H374.85h122.252c4.192,0,7.589-3.397,7.589-7.589v-44.964C504.691,442.267,490.714,428.289,473.533,428.289z
	 M15.683,459.447c0-8.812,7.169-15.981,15.98-15.981h75.113c8.811,0,15.98,7.169,15.98,15.981v37.375H15.683V459.447z
	 M137.934,459.447c0-8.812,7.169-15.981,15.98-15.981h75.113c8.811,0,15.98,7.169,15.98,15.981v37.375H137.934V459.447z
	 M260.186,459.447c0-8.812,7.169-15.981,15.98-15.981h75.114c8.811,0,15.98,7.169,15.98,15.981v37.375H260.186V459.447z
	 M489.514,496.822H382.44v-37.375c0-8.812,7.169-15.981,15.98-15.981h75.113c8.811,0,15.98,7.169,15.98,15.981V496.822z"/>
</svg>